<svg xmlns="http://www.w3.org/2000/svg" xmlns:xlink="http://www.w3.org/1999/xlink" width="1500" zoomAndPan="magnify" viewBox="0 0 1125 337.499995" height="450" preserveAspectRatio="xMidYMid meet" version="1.0"><defs><filter x="0%" y="0%" width="100%" height="100%" id="3852739642"><feColorMatrix values="0 0 0 0 1 0 0 0 0 1 0 0 0 0 1 0 0 0 1 0" color-interpolation-filters="sRGB"/></filter><g/><clipPath id="31a1681af5"><path d="M 24 0 L 1124.167969 0 L 1124.167969 337 L 24 337 Z M 24 0 " clip-rule="nonzero"/></clipPath><clipPath id="153c1d1f83"><path d="M 0.796875 79 L 516 79 L 516 276 L 0.796875 276 Z M 0.796875 79 " clip-rule="nonzero"/></clipPath><clipPath id="0c938de26e"><rect x="0" width="516" y="0" height="197"/></clipPath><clipPath id="e05a18e8c2"><path d="M 156 0 L 1100.167969 0 L 1100.167969 337 L 156 337 Z M 156 0 " clip-rule="nonzero"/></clipPath><clipPath id="7b2283f2b8"><path d="M 0.265625 0 L 944.167969 0 L 944.167969 337 L 0.265625 337 Z M 0.265625 0 " clip-rule="nonzero"/></clipPath><clipPath id="bbc4f299e2"><path d="M 0.265625 0 L 944.167969 0 L 944.167969 337 L 0.265625 337 Z M 0.265625 0 " clip-rule="nonzero"/></clipPath><clipPath id="18a191022c"><path d="M 0.265625 0 L 944.167969 0 L 944.167969 337 L 0.265625 337 Z M 0.265625 0 " clip-rule="nonzero"/></clipPath><linearGradient x1="-33.56904" gradientTransform="matrix(3.749809, 0, 0, 3.754475, 360.246989, 74.514807)" y1="-82.278496" x2="137.172135" gradientUnits="userSpaceOnUse" y2="88.461018" id="20973fe58a"><stop stop-opacity="1" stop-color="rgb(53.329468%, 71.369934%, 100%)" offset="0"/><stop stop-opacity="1" stop-color="rgb(53.329468%, 71.369934%, 100%)" offset="0.25"/><stop stop-opacity="1" stop-color="rgb(53.329468%, 71.369934%, 100%)" offset="0.262853"/><stop stop-opacity="1" stop-color="rgb(53.329468%, 71.369934%, 100%)" offset="0.3125"/><stop stop-opacity="1" stop-color="rgb(53.303528%, 71.348572%, 99.989319%)" offset="0.328125"/><stop stop-opacity="1" stop-color="rgb(52.932739%, 71.052551%, 99.85199%)" offset="0.332031"/><stop stop-opacity="1" stop-color="rgb(52.589417%, 70.777893%, 99.725342%)" offset="0.335938"/><stop stop-opacity="1" stop-color="rgb(52.246094%, 70.503235%, 99.597168%)" offset="0.339844"/><stop stop-opacity="1" stop-color="rgb(51.902771%, 70.228577%, 99.47052%)" offset="0.34375"/><stop stop-opacity="1" stop-color="rgb(51.557922%, 69.952393%, 99.342346%)" offset="0.347656"/><stop stop-opacity="1" stop-color="rgb(51.2146%, 69.677734%, 99.215698%)" offset="0.351562"/><stop stop-opacity="1" stop-color="rgb(50.871277%, 69.403076%, 99.087524%)" offset="0.355469"/><stop stop-opacity="1" stop-color="rgb(50.527954%, 69.128418%, 98.960876%)" offset="0.359375"/><stop stop-opacity="1" stop-color="rgb(50.183105%, 68.852234%, 98.832703%)" offset="0.363281"/><stop stop-opacity="1" stop-color="rgb(49.839783%, 68.577576%, 98.706055%)" offset="0.367187"/><stop stop-opacity="1" stop-color="rgb(49.494934%, 68.302917%, 98.579407%)" offset="0.371094"/><stop stop-opacity="1" stop-color="rgb(49.151611%, 68.028259%, 98.452759%)" offset="0.375"/><stop stop-opacity="1" stop-color="rgb(48.808289%, 67.752075%, 98.324585%)" offset="0.378906"/><stop stop-opacity="1" stop-color="rgb(48.464966%, 67.477417%, 98.197937%)" offset="0.382812"/><stop stop-opacity="1" stop-color="rgb(48.120117%, 67.202759%, 98.069763%)" offset="0.386719"/><stop stop-opacity="1" stop-color="rgb(47.776794%, 66.928101%, 97.943115%)" offset="0.390625"/><stop stop-opacity="1" stop-color="rgb(47.433472%, 66.651917%, 97.814941%)" offset="0.394531"/><stop stop-opacity="1" stop-color="rgb(47.090149%, 66.377258%, 97.688293%)" offset="0.398437"/><stop stop-opacity="1" stop-color="rgb(46.7453%, 66.1026%, 97.56012%)" offset="0.402344"/><stop stop-opacity="1" stop-color="rgb(46.401978%, 65.827942%, 97.433472%)" offset="0.40625"/><stop stop-opacity="1" stop-color="rgb(46.058655%, 65.551758%, 97.305298%)" offset="0.410156"/><stop stop-opacity="1" stop-color="rgb(45.715332%, 65.2771%, 97.17865%)" offset="0.414062"/><stop stop-opacity="1" stop-color="rgb(45.370483%, 65.002441%, 97.050476%)" offset="0.417969"/><stop stop-opacity="1" stop-color="rgb(45.027161%, 64.727783%, 96.923828%)" offset="0.421875"/><stop stop-opacity="1" stop-color="rgb(44.682312%, 64.453125%, 96.795654%)" offset="0.425781"/><stop stop-opacity="1" stop-color="rgb(44.338989%, 64.178467%, 96.669006%)" offset="0.429687"/><stop stop-opacity="1" stop-color="rgb(43.995667%, 63.902283%, 96.540833%)" offset="0.433594"/><stop stop-opacity="1" stop-color="rgb(43.652344%, 63.627625%, 96.414185%)" offset="0.4375"/><stop stop-opacity="1" stop-color="rgb(43.307495%, 63.352966%, 96.286011%)" offset="0.441406"/><stop stop-opacity="1" stop-color="rgb(42.964172%, 63.078308%, 96.159363%)" offset="0.445312"/><stop stop-opacity="1" stop-color="rgb(42.62085%, 62.802124%, 96.031189%)" offset="0.449219"/><stop stop-opacity="1" stop-color="rgb(42.277527%, 62.527466%, 95.904541%)" offset="0.453125"/><stop stop-opacity="1" stop-color="rgb(41.932678%, 62.252808%, 95.777893%)" offset="0.457031"/><stop stop-opacity="1" stop-color="rgb(41.589355%, 61.978149%, 95.651245%)" offset="0.460938"/><stop stop-opacity="1" stop-color="rgb(41.244507%, 61.701965%, 95.523071%)" offset="0.464844"/><stop stop-opacity="1" stop-color="rgb(40.901184%, 61.427307%, 95.396423%)" offset="0.46875"/><stop stop-opacity="1" stop-color="rgb(40.557861%, 61.152649%, 95.26825%)" offset="0.472656"/><stop stop-opacity="1" stop-color="rgb(40.214539%, 60.877991%, 95.141602%)" offset="0.476562"/><stop stop-opacity="1" stop-color="rgb(39.86969%, 60.601807%, 95.013428%)" offset="0.480469"/><stop stop-opacity="1" stop-color="rgb(39.526367%, 60.327148%, 94.88678%)" offset="0.484375"/><stop stop-opacity="1" stop-color="rgb(39.183044%, 60.05249%, 94.758606%)" offset="0.488281"/><stop stop-opacity="1" stop-color="rgb(38.839722%, 59.777832%, 94.631958%)" offset="0.492188"/><stop stop-opacity="1" stop-color="rgb(38.494873%, 59.503174%, 94.503784%)" offset="0.496094"/><stop stop-opacity="1" stop-color="rgb(38.15155%, 59.228516%, 94.377136%)" offset="0.5"/><stop stop-opacity="1" stop-color="rgb(37.808228%, 58.952332%, 94.248962%)" offset="0.503906"/><stop stop-opacity="1" stop-color="rgb(37.464905%, 58.677673%, 94.122314%)" offset="0.507812"/><stop stop-opacity="1" stop-color="rgb(37.120056%, 58.403015%, 93.994141%)" offset="0.511719"/><stop stop-opacity="1" stop-color="rgb(36.776733%, 58.128357%, 93.867493%)" offset="0.515625"/><stop stop-opacity="1" stop-color="rgb(36.431885%, 57.852173%, 93.739319%)" offset="0.519531"/><stop stop-opacity="1" stop-color="rgb(36.088562%, 57.577515%, 93.612671%)" offset="0.523438"/><stop stop-opacity="1" stop-color="rgb(35.745239%, 57.302856%, 93.484497%)" offset="0.527344"/><stop stop-opacity="1" stop-color="rgb(35.401917%, 57.028198%, 93.357849%)" offset="0.53125"/><stop stop-opacity="1" stop-color="rgb(35.057068%, 56.752014%, 93.231201%)" offset="0.535156"/><stop stop-opacity="1" stop-color="rgb(34.713745%, 56.477356%, 93.104553%)" offset="0.539062"/><stop stop-opacity="1" stop-color="rgb(34.370422%, 56.202698%, 92.976379%)" offset="0.542969"/><stop stop-opacity="1" stop-color="rgb(34.0271%, 55.92804%, 92.849731%)" offset="0.546875"/><stop stop-opacity="1" stop-color="rgb(33.682251%, 55.651855%, 92.721558%)" offset="0.550781"/><stop stop-opacity="1" stop-color="rgb(33.338928%, 55.377197%, 92.59491%)" offset="0.554688"/><stop stop-opacity="1" stop-color="rgb(32.99408%, 55.102539%, 92.466736%)" offset="0.558594"/><stop stop-opacity="1" stop-color="rgb(32.650757%, 54.827881%, 92.340088%)" offset="0.5625"/><stop stop-opacity="1" stop-color="rgb(32.307434%, 54.551697%, 92.211914%)" offset="0.566406"/><stop stop-opacity="1" stop-color="rgb(31.964111%, 54.277039%, 92.085266%)" offset="0.570312"/><stop stop-opacity="1" stop-color="rgb(31.619263%, 54.00238%, 91.957092%)" offset="0.574219"/><stop stop-opacity="1" stop-color="rgb(31.27594%, 53.727722%, 91.830444%)" offset="0.578125"/><stop stop-opacity="1" stop-color="rgb(30.932617%, 53.453064%, 91.702271%)" offset="0.582031"/><stop stop-opacity="1" stop-color="rgb(30.589294%, 53.178406%, 91.575623%)" offset="0.585938"/><stop stop-opacity="1" stop-color="rgb(30.244446%, 52.902222%, 91.447449%)" offset="0.589844"/><stop stop-opacity="1" stop-color="rgb(29.901123%, 52.627563%, 91.320801%)" offset="0.59375"/><stop stop-opacity="1" stop-color="rgb(29.5578%, 52.352905%, 91.192627%)" offset="0.597656"/><stop stop-opacity="1" stop-color="rgb(29.214478%, 52.078247%, 91.065979%)" offset="0.601562"/><stop stop-opacity="1" stop-color="rgb(28.869629%, 51.802063%, 90.937805%)" offset="0.605469"/><stop stop-opacity="1" stop-color="rgb(28.526306%, 51.527405%, 90.811157%)" offset="0.609375"/><stop stop-opacity="1" stop-color="rgb(28.181458%, 51.252747%, 90.682983%)" offset="0.613281"/><stop stop-opacity="1" stop-color="rgb(27.838135%, 50.978088%, 90.556335%)" offset="0.617187"/><stop stop-opacity="1" stop-color="rgb(27.494812%, 50.701904%, 90.429688%)" offset="0.621094"/><stop stop-opacity="1" stop-color="rgb(27.151489%, 50.427246%, 90.30304%)" offset="0.625"/><stop stop-opacity="1" stop-color="rgb(26.806641%, 50.152588%, 90.174866%)" offset="0.628906"/><stop stop-opacity="1" stop-color="rgb(26.463318%, 49.87793%, 90.048218%)" offset="0.632812"/><stop stop-opacity="1" stop-color="rgb(26.119995%, 49.601746%, 89.920044%)" offset="0.636719"/><stop stop-opacity="1" stop-color="rgb(25.776672%, 49.327087%, 89.793396%)" offset="0.640625"/><stop stop-opacity="1" stop-color="rgb(25.431824%, 49.052429%, 89.665222%)" offset="0.644531"/><stop stop-opacity="1" stop-color="rgb(25.088501%, 48.777771%, 89.538574%)" offset="0.648438"/><stop stop-opacity="1" stop-color="rgb(24.743652%, 48.503113%, 89.4104%)" offset="0.652344"/><stop stop-opacity="1" stop-color="rgb(24.40033%, 48.228455%, 89.283752%)" offset="0.65625"/><stop stop-opacity="1" stop-color="rgb(24.057007%, 47.952271%, 89.155579%)" offset="0.660156"/><stop stop-opacity="1" stop-color="rgb(23.713684%, 47.677612%, 89.028931%)" offset="0.664062"/><stop stop-opacity="1" stop-color="rgb(23.368835%, 47.402954%, 88.900757%)" offset="0.667969"/><stop stop-opacity="1" stop-color="rgb(23.025513%, 47.128296%, 88.774109%)" offset="0.671875"/><stop stop-opacity="1" stop-color="rgb(22.68219%, 46.852112%, 88.645935%)" offset="0.675781"/><stop stop-opacity="1" stop-color="rgb(22.338867%, 46.577454%, 88.519287%)" offset="0.679688"/><stop stop-opacity="1" stop-color="rgb(21.994019%, 46.302795%, 88.391113%)" offset="0.683594"/><stop stop-opacity="1" stop-color="rgb(21.650696%, 46.028137%, 88.264465%)" offset="0.6875"/><stop stop-opacity="1" stop-color="rgb(21.307373%, 45.751953%, 88.136292%)" offset="0.691406"/><stop stop-opacity="1" stop-color="rgb(20.96405%, 45.477295%, 88.009644%)" offset="0.695312"/><stop stop-opacity="1" stop-color="rgb(20.619202%, 45.202637%, 87.882996%)" offset="0.699219"/><stop stop-opacity="1" stop-color="rgb(20.275879%, 44.927979%, 87.756348%)" offset="0.703125"/><stop stop-opacity="1" stop-color="rgb(19.93103%, 44.651794%, 87.628174%)" offset="0.707031"/><stop stop-opacity="1" stop-color="rgb(19.587708%, 44.377136%, 87.501526%)" offset="0.710938"/><stop stop-opacity="1" stop-color="rgb(19.244385%, 44.102478%, 87.373352%)" offset="0.714844"/><stop stop-opacity="1" stop-color="rgb(18.901062%, 43.82782%, 87.246704%)" offset="0.71875"/><stop stop-opacity="1" stop-color="rgb(18.556213%, 43.551636%, 87.11853%)" offset="0.722656"/><stop stop-opacity="1" stop-color="rgb(18.212891%, 43.276978%, 86.991882%)" offset="0.726562"/><stop stop-opacity="1" stop-color="rgb(17.869568%, 43.002319%, 86.863708%)" offset="0.730469"/><stop stop-opacity="1" stop-color="rgb(17.526245%, 42.727661%, 86.737061%)" offset="0.734375"/><stop stop-opacity="1" stop-color="rgb(17.181396%, 42.453003%, 86.608887%)" offset="0.738281"/><stop stop-opacity="1" stop-color="rgb(16.838074%, 42.178345%, 86.482239%)" offset="0.742188"/><stop stop-opacity="1" stop-color="rgb(16.493225%, 41.902161%, 86.354065%)" offset="0.746094"/><stop stop-opacity="1" stop-color="rgb(16.149902%, 41.627502%, 86.227417%)" offset="0.75"/><stop stop-opacity="1" stop-color="rgb(15.80658%, 41.352844%, 86.099243%)" offset="0.753906"/><stop stop-opacity="1" stop-color="rgb(15.463257%, 41.078186%, 85.972595%)" offset="0.757812"/><stop stop-opacity="1" stop-color="rgb(15.118408%, 40.802002%, 85.844421%)" offset="0.761719"/><stop stop-opacity="1" stop-color="rgb(14.775085%, 40.527344%, 85.717773%)" offset="0.765625"/><stop stop-opacity="1" stop-color="rgb(14.431763%, 40.252686%, 85.5896%)" offset="0.769531"/><stop stop-opacity="1" stop-color="rgb(14.08844%, 39.978027%, 85.462952%)" offset="0.773438"/><stop stop-opacity="1" stop-color="rgb(13.743591%, 39.701843%, 85.334778%)" offset="0.777344"/><stop stop-opacity="1" stop-color="rgb(13.400269%, 39.427185%, 85.20813%)" offset="0.78125"/><stop stop-opacity="1" stop-color="rgb(13.056946%, 39.152527%, 85.081482%)" offset="0.785156"/><stop stop-opacity="1" stop-color="rgb(12.713623%, 38.877869%, 84.954834%)" offset="0.789062"/><stop stop-opacity="1" stop-color="rgb(12.368774%, 38.601685%, 84.82666%)" offset="0.792969"/><stop stop-opacity="1" stop-color="rgb(12.025452%, 38.327026%, 84.700012%)" offset="0.796875"/><stop stop-opacity="1" stop-color="rgb(11.680603%, 38.052368%, 84.571838%)" offset="0.800781"/><stop stop-opacity="1" stop-color="rgb(11.33728%, 37.77771%, 84.44519%)" offset="0.804688"/><stop stop-opacity="1" stop-color="rgb(10.993958%, 37.503052%, 84.317017%)" offset="0.808594"/><stop stop-opacity="1" stop-color="rgb(10.650635%, 37.228394%, 84.190369%)" offset="0.8125"/><stop stop-opacity="1" stop-color="rgb(10.305786%, 36.952209%, 84.062195%)" offset="0.816406"/><stop stop-opacity="1" stop-color="rgb(9.962463%, 36.677551%, 83.935547%)" offset="0.820312"/><stop stop-opacity="1" stop-color="rgb(9.619141%, 36.402893%, 83.807373%)" offset="0.824219"/><stop stop-opacity="1" stop-color="rgb(9.275818%, 36.128235%, 83.680725%)" offset="0.828125"/><stop stop-opacity="1" stop-color="rgb(8.930969%, 35.852051%, 83.552551%)" offset="0.832031"/><stop stop-opacity="1" stop-color="rgb(8.587646%, 35.577393%, 83.425903%)" offset="0.835938"/><stop stop-opacity="1" stop-color="rgb(8.242798%, 35.302734%, 83.297729%)" offset="0.839844"/><stop stop-opacity="1" stop-color="rgb(7.899475%, 35.028076%, 83.171082%)" offset="0.84375"/><stop stop-opacity="1" stop-color="rgb(7.556152%, 34.751892%, 83.042908%)" offset="0.847656"/><stop stop-opacity="1" stop-color="rgb(7.21283%, 34.477234%, 82.91626%)" offset="0.851562"/><stop stop-opacity="1" stop-color="rgb(6.867981%, 34.202576%, 82.788086%)" offset="0.855469"/><stop stop-opacity="1" stop-color="rgb(6.524658%, 33.927917%, 82.661438%)" offset="0.859375"/><stop stop-opacity="1" stop-color="rgb(6.181335%, 33.651733%, 82.53479%)" offset="0.863281"/><stop stop-opacity="1" stop-color="rgb(5.838013%, 33.377075%, 82.408142%)" offset="0.867188"/><stop stop-opacity="1" stop-color="rgb(5.493164%, 33.102417%, 82.279968%)" offset="0.871094"/><stop stop-opacity="1" stop-color="rgb(5.149841%, 32.827759%, 82.15332%)" offset="0.875"/><stop stop-opacity="1" stop-color="rgb(4.806519%, 32.551575%, 82.025146%)" offset="0.878906"/><stop stop-opacity="1" stop-color="rgb(4.463196%, 32.276917%, 81.898499%)" offset="0.882812"/><stop stop-opacity="1" stop-color="rgb(4.118347%, 32.002258%, 81.770325%)" offset="0.886719"/><stop stop-opacity="1" stop-color="rgb(3.775024%, 31.7276%, 81.643677%)" offset="0.890625"/><stop stop-opacity="1" stop-color="rgb(3.430176%, 31.452942%, 81.515503%)" offset="0.894531"/><stop stop-opacity="1" stop-color="rgb(3.086853%, 31.178284%, 81.388855%)" offset="0.898438"/><stop stop-opacity="1" stop-color="rgb(2.74353%, 30.9021%, 81.260681%)" offset="0.902344"/><stop stop-opacity="1" stop-color="rgb(2.400208%, 30.627441%, 81.134033%)" offset="0.90625"/><stop stop-opacity="1" stop-color="rgb(2.055359%, 30.352783%, 81.005859%)" offset="0.910156"/><stop stop-opacity="1" stop-color="rgb(1.712036%, 30.078125%, 80.879211%)" offset="0.914062"/><stop stop-opacity="1" stop-color="rgb(1.368713%, 29.801941%, 80.751038%)" offset="0.917969"/><stop stop-opacity="1" stop-color="rgb(1.025391%, 29.527283%, 80.62439%)" offset="0.921875"/><stop stop-opacity="1" stop-color="rgb(0.706482%, 29.272461%, 80.506897%)" offset="0.925781"/><stop stop-opacity="1" stop-color="rgb(0.389099%, 29.019165%, 80.389404%)" offset="0.929688"/><stop stop-opacity="1" stop-color="rgb(0.389099%, 29.019165%, 80.389404%)" offset="0.9375"/><stop stop-opacity="1" stop-color="rgb(0.389099%, 29.019165%, 80.389404%)" offset="1"/></linearGradient><clipPath id="312d4caddd"><rect x="0" width="945" y="0" height="337"/></clipPath><clipPath id="2da31b6f23"><path d="M 0.265625 0 L 944.167969 0 L 944.167969 337 L 0.265625 337 Z M 0.265625 0 " clip-rule="nonzero"/></clipPath><clipPath id="052d4b3310"><rect x="0" width="945" y="0" height="337"/></clipPath><clipPath id="5932e596d1"><rect x="0" width="945" y="0" height="337"/></clipPath><mask id="e9e40299a6"><g filter="url(#3852739642)"><g><g clip-path="url(#5932e596d1)"><g clip-path="url(#2da31b6f23)"><g><g clip-path="url(#052d4b3310)"><g fill="#000000" fill-opacity="1"><g transform="translate(360.695094, 228.448321)"><g><path d="M 12.609375 -126.15625 L 72.265625 -126.15625 C 86.085938 -126.15625 98.34375 -123.570312 109.03125 -118.40625 C 119.726562 -113.238281 128.019531 -105.910156 133.90625 -96.421875 C 139.789062 -86.929688 142.734375 -75.816406 142.734375 -63.078125 C 142.734375 -50.335938 139.789062 -39.222656 133.90625 -29.734375 C 128.019531 -20.242188 119.726562 -12.914062 109.03125 -7.75 C 98.34375 -2.582031 86.085938 0 72.265625 0 L 12.609375 0 Z M 70.828125 -28.46875 C 81.640625 -28.46875 90.316406 -31.53125 96.859375 -37.65625 C 103.410156 -43.789062 106.6875 -52.265625 106.6875 -63.078125 C 106.6875 -73.890625 103.410156 -82.359375 96.859375 -88.484375 C 90.316406 -94.609375 81.640625 -97.671875 70.828125 -97.671875 L 48.296875 -97.671875 L 48.296875 -28.46875 Z M 70.828125 -28.46875 "/></g></g></g><g fill="#000000" fill-opacity="1"><g transform="translate(500.361966, 228.448321)"><g><path d="M 67.765625 -33.515625 L 48.296875 -33.515625 L 48.296875 0 L 12.609375 0 L 12.609375 -126.15625 L 70.28125 -126.15625 C 81.695312 -126.15625 91.609375 -124.257812 100.015625 -120.46875 C 108.429688 -116.6875 114.921875 -111.28125 119.484375 -104.25 C 124.046875 -97.226562 126.328125 -88.96875 126.328125 -79.46875 C 126.328125 -70.34375 124.191406 -62.382812 119.921875 -55.59375 C 115.660156 -48.8125 109.566406 -43.492188 101.640625 -39.640625 L 128.859375 0 L 90.65625 0 Z M 90.296875 -79.46875 C 90.296875 -85.363281 88.429688 -89.929688 84.703125 -93.171875 C 80.972656 -96.410156 75.445312 -98.03125 68.125 -98.03125 L 48.296875 -98.03125 L 48.296875 -61.09375 L 68.125 -61.09375 C 75.445312 -61.09375 80.972656 -62.679688 84.703125 -65.859375 C 88.429688 -69.046875 90.296875 -73.582031 90.296875 -79.46875 Z M 90.296875 -79.46875 "/></g></g></g><g fill="#000000" fill-opacity="1"><g transform="translate(624.530275, 228.448321)"><g><path d="M 12.609375 -126.15625 L 48.296875 -126.15625 L 48.296875 0 L 12.609375 0 Z M 12.609375 -126.15625 "/></g></g></g><g fill="#000000" fill-opacity="1"><g transform="translate(676.071893, 228.448321)"><g><path d="M 140.578125 -126.15625 L 86.5 0 L 51.359375 0 L -2.515625 -126.15625 L 36.046875 -126.15625 L 70.28125 -43.96875 L 105.25 -126.15625 Z M 140.578125 -126.15625 "/></g></g></g><g fill="#000000" fill-opacity="1"><g transform="translate(802.222622, 228.448321)"><g><path d="M 113.890625 -27.578125 L 113.890625 0 L 12.609375 0 L 12.609375 -126.15625 L 111.5625 -126.15625 L 111.5625 -98.578125 L 47.9375 -98.578125 L 47.9375 -77.3125 L 103.984375 -77.3125 L 103.984375 -50.640625 L 47.9375 -50.640625 L 47.9375 -27.578125 Z M 113.890625 -27.578125 "/></g></g></g></g></g></g></g></g></g></mask><clipPath id="b9716e7ec3"><path d="M 0.265625 0 L 944.167969 0 L 944.167969 337 L 0.265625 337 Z M 0.265625 0 " clip-rule="nonzero"/></clipPath><clipPath id="bad72e1309"><rect x="0" width="945" y="0" height="337"/></clipPath><clipPath id="1a47c8352c"><rect x="0" width="945" y="0" height="337"/></clipPath><clipPath id="79794f70a7"><rect x="0" width="945" y="0" height="337"/></clipPath><clipPath id="f250f1657f"><rect x="0" width="1101" y="0" height="337"/></clipPath></defs><g clip-path="url(#31a1681af5)"><g transform="matrix(1, 0, 0, 1, 24, 0)"><g clip-path="url(#f250f1657f)"><g clip-path="url(#153c1d1f83)"><g transform="matrix(1, 0, 0, 1, 0, 79)"><g clip-path="url(#0c938de26e)"><g fill="#f3f0f9" fill-opacity="1"><g transform="translate(0.980597, 154.704548)"><g><path d="M 62.46875 -112.125 C 72.613281 -112.125 81.421875 -110.441406 88.890625 -107.078125 C 96.367188 -103.710938 102.132812 -98.90625 106.1875 -92.65625 C 110.25 -86.414062 112.28125 -79.078125 112.28125 -70.640625 C 112.28125 -62.203125 110.25 -54.882812 106.1875 -48.6875 C 102.132812 -42.5 96.367188 -37.722656 88.890625 -34.359375 C 81.421875 -30.992188 72.613281 -29.3125 62.46875 -29.3125 L 42.921875 -29.3125 L 42.921875 0 L 11.21875 0 L 11.21875 -112.125 Z M 60.546875 -54.296875 C 67.054688 -54.296875 71.96875 -55.707031 75.28125 -58.53125 C 78.59375 -61.363281 80.25 -65.398438 80.25 -70.640625 C 80.25 -75.867188 78.59375 -79.925781 75.28125 -82.8125 C 71.96875 -85.695312 67.054688 -87.140625 60.546875 -87.140625 L 42.921875 -87.140625 L 42.921875 -54.296875 Z M 60.546875 -54.296875 "/></g></g></g><g fill="#f3f0f9" fill-opacity="1"><g transform="translate(110.842641, 154.704548)"><g><path d="M 67.75 2.25 C 55.894531 2.25 45.242188 -0.257812 35.796875 -5.28125 C 26.347656 -10.300781 18.925781 -17.242188 13.53125 -26.109375 C 8.144531 -34.972656 5.453125 -44.957031 5.453125 -56.0625 C 5.453125 -67.164062 8.144531 -77.148438 13.53125 -86.015625 C 18.925781 -94.878906 26.347656 -101.816406 35.796875 -106.828125 C 45.242188 -111.847656 55.894531 -114.359375 67.75 -114.359375 C 79.601562 -114.359375 90.253906 -111.847656 99.703125 -106.828125 C 109.148438 -101.816406 116.570312 -94.878906 121.96875 -86.015625 C 127.363281 -77.148438 130.0625 -67.164062 130.0625 -56.0625 C 130.0625 -44.957031 127.363281 -34.972656 121.96875 -26.109375 C 116.570312 -17.242188 109.148438 -10.300781 99.703125 -5.28125 C 90.253906 -0.257812 79.601562 2.25 67.75 2.25 Z M 67.75 -24.03125 C 73.40625 -24.03125 78.53125 -25.363281 83.125 -28.03125 C 87.71875 -30.695312 91.347656 -34.457031 94.015625 -39.3125 C 96.691406 -44.175781 98.03125 -49.757812 98.03125 -56.0625 C 98.03125 -62.363281 96.691406 -67.941406 94.015625 -72.796875 C 91.347656 -77.660156 87.71875 -81.425781 83.125 -84.09375 C 78.53125 -86.757812 73.40625 -88.09375 67.75 -88.09375 C 62.09375 -88.09375 56.96875 -86.757812 52.375 -84.09375 C 47.78125 -81.425781 44.148438 -77.660156 41.484375 -72.796875 C 38.816406 -67.941406 37.484375 -62.363281 37.484375 -56.0625 C 37.484375 -49.757812 38.816406 -44.175781 41.484375 -39.3125 C 44.148438 -34.457031 47.78125 -30.695312 52.375 -28.03125 C 56.96875 -25.363281 62.09375 -24.03125 67.75 -24.03125 Z M 67.75 -24.03125 "/></g></g></g><g fill="#f3f0f9" fill-opacity="1"><g transform="translate(238.161204, 154.704548)"><g><path d="M 112.4375 0 L 112.125 -59.421875 L 83.296875 -11.046875 L 69.1875 -11.046875 L 40.53125 -57.828125 L 40.53125 0 L 11.21875 0 L 11.21875 -112.125 L 37.3125 -112.125 L 76.71875 -47.40625 L 115.15625 -112.125 L 141.265625 -112.125 L 141.59375 0 Z M 112.4375 0 "/></g></g></g><g fill="#f3f0f9" fill-opacity="1"><g transform="translate(382.776161, 154.704548)"><g><path d="M 67.75 2.25 C 55.894531 2.25 45.242188 -0.257812 35.796875 -5.28125 C 26.347656 -10.300781 18.925781 -17.242188 13.53125 -26.109375 C 8.144531 -34.972656 5.453125 -44.957031 5.453125 -56.0625 C 5.453125 -67.164062 8.144531 -77.148438 13.53125 -86.015625 C 18.925781 -94.878906 26.347656 -101.816406 35.796875 -106.828125 C 45.242188 -111.847656 55.894531 -114.359375 67.75 -114.359375 C 79.601562 -114.359375 90.253906 -111.847656 99.703125 -106.828125 C 109.148438 -101.816406 116.570312 -94.878906 121.96875 -86.015625 C 127.363281 -77.148438 130.0625 -67.164062 130.0625 -56.0625 C 130.0625 -44.957031 127.363281 -34.972656 121.96875 -26.109375 C 116.570312 -17.242188 109.148438 -10.300781 99.703125 -5.28125 C 90.253906 -0.257812 79.601562 2.25 67.75 2.25 Z M 67.75 -24.03125 C 73.40625 -24.03125 78.53125 -25.363281 83.125 -28.03125 C 87.71875 -30.695312 91.347656 -34.457031 94.015625 -39.3125 C 96.691406 -44.175781 98.03125 -49.757812 98.03125 -56.0625 C 98.03125 -62.363281 96.691406 -67.941406 94.015625 -72.796875 C 91.347656 -77.660156 87.71875 -81.425781 83.125 -84.09375 C 78.53125 -86.757812 73.40625 -88.09375 67.75 -88.09375 C 62.09375 -88.09375 56.96875 -86.757812 52.375 -84.09375 C 47.78125 -81.425781 44.148438 -77.660156 41.484375 -72.796875 C 38.816406 -67.941406 37.484375 -62.363281 37.484375 -56.0625 C 37.484375 -49.757812 38.816406 -44.175781 41.484375 -39.3125 C 44.148438 -34.457031 47.78125 -30.695312 52.375 -28.03125 C 56.96875 -25.363281 62.09375 -24.03125 67.75 -24.03125 Z M 67.75 -24.03125 "/></g></g></g></g></g></g><g clip-path="url(#e05a18e8c2)"><g transform="matrix(1, 0, 0, 1, 156, 0)"><g clip-path="url(#79794f70a7)"><g clip-path="url(#7b2283f2b8)"><g><g clip-path="url(#1a47c8352c)"><g clip-path="url(#bbc4f299e2)"><g mask="url(#e9e40299a6)"><g><g clip-path="url(#bad72e1309)"><g clip-path="url(#b9716e7ec3)"><path fill="url(#20973fe58a)" d="M 0.265625 0 L 0.265625 337 L 944.167969 337 L 944.167969 0 Z M 0.265625 0 " fill-rule="nonzero"/></g></g></g></g></g></g></g></g></g></g></g></g></g></g></svg>